<svg width="136" height="40" viewBox="0 0 1010 269" xmlns="http://www.w3.org/2000/svg"><path d="M59.539 178.358l-22.5-1c-18.5-1-29.1-5.6-29.1-18.5 0-14.1 14.7-21.7 39.1-21.7 21 0 32.2 3.4 41.2 8.3l-4.8 8.9c-7.8-4.2-17.4-7.9-36.4-7.9-18.6 0-27.4 4.1-27.4 11.4 0 6.6 6.2 8.7 19.3 9.3l22.5 1c18.8.9 31.2 4.6 31.2 19.4 0 16.8-18.7 23.4-41.9 23.4-22 0-35.3-4.1-45.1-10.5l5.9-8.6c6.7 4.5 18.8 9.7 39.2 9.7 21.2 0 29.9-5.4 29.9-13.1-.1-7.5-6.5-9.4-21.1-10.1zm34.7-39h85.1v9.9h-36.7v60.4h-11.6v-60.4h-36.7v-9.9zm145.6 56.7h-56.4l-9.1 13.6h-12l48.7-72.5h.9l49.7 72.5h-12.5l-9.3-13.6zm-50-9.5h43.5l-22-32-21.5 32zm152.2 23.1l-25.4-28h-33.9v28h-11.6v-70.3h49.1c22.2 0 33.8 6.2 33.8 21 0 11.9-8.3 18.9-24 20.9l25.8 28.5h-13.8zm-59.3-36.9h36.3c15.3 0 23.1-2.7 23.1-11.9s-7-11.8-23.1-11.8h-36.3v23.7zm306.6 36.9H577.74v-71.5h1l47.799 43.7 45.9-43.7h1v71.5h-11.6v-47.5l-34.9 33.5h-.9l-36.7-33.4v47.4zm152 1.4c-27 0-49.5-11.5-49.5-36.3 0-24.3 22.7-36.6 49.5-36.6 26.7 0 49 12.1 49 36.4 0 24.8-21.9 36.5-49 36.5zm-.2-9.2c22.7 0 37.101-8.9 37.101-27.2 0-17.8-14.401-27.5-37.101-27.5s-37.1 9.5-37.1 27.3c0 18.3 14.4 27.4 37.1 27.4zm136.601-62.5h12.5l-48.701 72.5h-.9l-49.7-72.5h13.6l36.701 54.6 36.5-54.6zm19.099 0h11.6v70.3h-11.6v-70.3zm89.901 29.4v9.6h-43.5v21.3h60.299v10h-71.9v-70.3h71.9v10H943.24v19.4h43.5z" fill="#fff"/><radialGradient id="a" cx="492.59" cy="95.57" r="180.874" gradientUnits="userSpaceOnUse" gradientTransform="translate(-75.66 1.458)"><stop offset="0" stop-color="#F9F5EF"/><stop offset=".023" stop-color="#F5EFE6"/><stop offset=".125" stop-color="#E7D8C1"/><stop offset=".234" stop-color="#DBC4A2"/><stop offset=".349" stop-color="#D1B588"/><stop offset=".472" stop-color="#CAA975"/><stop offset=".609" stop-color="#C4A067"/><stop offset=".767" stop-color="#C19B5F"/><stop offset="1" stop-color="#C09A5D"/></radialGradient><path fill="url(#a)" d="M484.339 98.058l-26.099-84.5s.199.1.299.3c.1.1.3.3.4.5.1.2.301.5.301.5 10.399 23.8 18 48.5 30.799 67.2l-14.7-47.7.5.5c.3.4.5.9.5.9 9 20.8 15.5 42.1 27.7 57.2l-11.7-38.2s.1.1.3.2l.2.2c.2.2.5.8.5.8 8.401 19.7 14.2 40.2 29.5 50.1 3 2 6.401 3.5 10.3 4.5 1.5.3 2.601.9 2.7 1.3h-1.9l-12.699-.2-23-.3c-9.801 0-9.801 0-13.901-13.3zm-56.7 11.9l-88.4-.7.4-.2c.1-.1.3-.2.6-.3.2-.1.5-.1.5-.1 25.8-2.7 51.6-2.4 73.4-9l-49.9-.4s.4-.2.7-.3c.4-.2 1-.2 1-.2 22.6-2.3 44.8-2 62.9-9.1l-40.1-.3s.1-.1.3-.2c.1 0 .2-.1.2-.1.3-.1.9-.2.9-.2 21.4-2.1 42.6-1.3 56.7-12.9 2.8-2.3 5.3-5 7.401-8.4.799-1.4 1.599-2.2 2.099-2.1l-.599 1.8-4 12-7.201 21.8c-3 9-3 9-16.9 8.9zm-6.4 58.6l-28.4 83.7s-.1-.2-.1-.4-.1-.4 0-.7c0-.2.1-.5.1-.5 5.5-25.4 13.9-49.8 14.5-72.5l-16 47.2s-.1-.5-.1-.7c0-.5.1-1 .1-1 4.9-22.2 12.2-43.2 11.1-62.6l-13.1 37.9s0-.2-.1-.4v-.2c0-.3.1-.9.1-.9 4.8-20.9 12.1-40.9 5.5-57.9-1.3-3.4-3.1-6.6-5.7-9.7-1.1-1.2-1.6-2.3-1.4-2.6l1.5 1.1 10.2 7.6 18.5 13.7c7.7 5.7 7.7 5.7 3.3 18.9zm53.6 23.7l70.6 53.2h-.4c-.1 0-.4-.1-.6-.2-.199-.1-.5-.2-.5-.2-22.4-13.2-42.9-28.7-64.3-36.4l39.9 30s-.5-.1-.7-.1c-.5-.1-.9-.4-.9-.4-19.5-11.6-37.199-25.1-56-30.1l32 24.1h-.6c-.3-.1-.8-.4-.8-.4-18.4-11.1-35-24.2-53.2-23.4-3.6.2-7.3.9-11 2.3-1.4.6-2.6.8-2.9.5l1.5-1.1 10.4-7.3 18.8-13.3c7.601-5.6 7.601-5.6 18.7 2.8zm38.6-43.6l72.1-51.2s-.1.2-.1.4c-.1.1-.199.3-.4.6-.1.2-.4.4-.4.4-19.399 17.3-40.399 32.2-54.3 50.2l40.7-28.9s-.2.4-.4.7c-.3.4-.7.7-.7.7-17 15.1-35.199 27.8-45.699 44.2l32.699-23.2s-.1.1-.1.3c0 .1-.099.2-.099.2-.201.3-.601.7-.601.7-16.1 14.2-33.7 26-38.399 43.6-.901 3.5-1.301 7.2-1.101 11.2.2 1.6 0 2.8-.399 2.9l-.601-1.8-3.8-12.1-6.9-21.9c-2.8-9-2.8-9 8.5-17z"/></svg>